# Blender 4.2.1 LTS
# www.blender.org
mtllib monitor.mtl
o Cube.008
v 1.000000 0.507466 -0.570393
v 1.000000 -1.000000 -0.570393
v 1.162004 0.846783 1.016226
v 1.162004 -1.227077 1.016226
v -1.000000 0.507466 -0.570393
v -1.000000 -1.000000 -0.570393
v -1.162004 0.846783 1.016226
v -1.162004 -1.227077 1.016226
v -1.162004 -1.162004 0.163765
v 1.162004 0.669470 0.163765
v -1.162004 0.669470 0.163765
v 1.162004 -1.162004 0.163765
v -1.311254 -1.285316 0.613213
v 1.311254 0.881438 0.613213
v -1.311254 0.881438 0.613213
v 1.311254 -1.285316 0.613213
v 0.000000 -1.000000 -0.570393
v 0.000000 0.846783 1.016226
v 0.000000 -1.227077 1.016226
v 0.000000 0.507466 -0.570393
v 0.000000 -1.162004 0.163765
v 0.000000 0.669470 0.163765
v 0.000000 -1.285316 0.613213
v 0.000000 0.881438 0.613213
v 1.000000 -0.805201 -0.570393
v -1.162004 -0.959088 1.016226
v 1.162004 -0.959088 1.016226
v -1.000000 -0.805201 -0.570393
v 1.162004 -0.925336 0.163765
v -1.162004 -0.925336 0.163765
v -1.311254 -1.005323 0.613213
v 1.311254 -1.005323 0.613213
v 0.000000 -0.805201 -0.570393
v 0.000000 -0.959088 1.016226
v -1.162004 0.573495 1.016226
v 1.000000 0.308816 -0.570393
v 1.162004 0.573495 1.016226
v -1.000000 0.308816 -0.570393
v 1.162004 0.428123 0.163765
v -1.162004 0.428123 0.163765
v -1.311254 0.595909 0.613213
v 1.311254 0.595909 0.613213
v 0.000000 0.308816 -0.570393
v 0.000000 0.573495 1.016226
v 0.922827 -1.227077 1.016226
v 0.794168 0.507466 -0.570393
v 0.922827 0.669470 0.163765
v 1.041356 0.881438 0.613213
v 0.794168 -1.000000 -0.570393
v 0.922827 0.846783 1.016226
v 0.922827 -1.162004 0.163765
v 1.041356 -1.285316 0.613213
v 0.922827 -0.959088 1.016226
v 0.794168 -0.805201 -0.570393
v 0.922827 0.573495 1.016226
v 0.794168 0.308816 -0.570393
v -0.745098 -1.000000 -0.570393
v -0.865807 0.846783 1.016226
v -0.865807 -1.162004 0.163765
v -0.977013 -1.285316 0.613213
v -0.865807 -1.227077 1.016226
v -0.745098 0.507466 -0.570393
v -0.865807 0.669470 0.163765
v -0.977013 0.881438 0.613213
v -0.745098 -0.805201 -0.570393
v -0.865807 -0.959088 1.016226
v -0.745098 0.308816 -0.570393
v -0.865807 0.573495 1.016226
v -0.708388 -1.227077 1.016226
v -0.609626 0.507466 -0.570393
v -0.708388 0.669470 0.163765
v -0.799374 0.881438 0.613213
v -0.609626 -0.805201 -0.570393
v -0.609626 0.308816 -0.570393
v -0.609626 -1.000000 -0.570393
v -0.708388 0.846783 1.016226
v -0.708388 -1.162004 0.163765
v -0.799374 -1.285316 0.613213
v -0.708388 -0.959088 1.016226
v -0.708388 0.573495 1.016226
v 0.686335 -1.000000 -0.570393
v 0.797524 0.846783 1.016226
v 0.797524 -1.162004 0.163765
v 0.899959 -1.285316 0.613213
v 0.797524 -0.959088 1.016226
v 0.797524 0.573495 1.016226
v 0.797524 -1.227077 1.016226
v 0.686335 0.507466 -0.570393
v 0.797524 0.669470 0.163765
v 0.899959 0.881438 0.613213
v 0.686335 -0.805201 -0.570393
v 0.686335 0.308816 -0.570393
v 1.000000 0.209792 -0.570393
v 1.162004 0.437265 1.016226
v -1.000000 0.209792 -0.570393
v 1.162004 0.307816 0.163765
v -1.162004 0.307816 0.163765
v -1.311254 0.453578 0.613213
v 1.311254 0.453578 0.613213
v 0.000000 0.209792 -0.570393
v 0.000000 0.437265 0.717048
v -1.162004 0.437265 1.016226
v 0.794168 0.209792 -0.570393
v 0.922827 0.437265 1.016226
v -0.865807 0.437265 1.016226
v -0.745098 0.209792 -0.570393
v -0.708388 0.437265 0.717048
v -0.609626 0.209792 -0.570393
v 0.686335 0.209792 -0.570393
v 0.797524 0.437265 0.717048
v 1.000000 -0.673170 -0.570393
v 1.162004 -0.777448 1.016226
v -1.000000 -0.673170 -0.570393
v 1.162004 -0.764926 0.163765
v -1.162004 -0.764926 0.163765
v -1.311254 -0.815547 0.613213
v 1.311254 -0.815547 0.613213
v 0.000000 -0.673170 -0.570393
v 0.000000 -0.777448 0.717048
v 0.794168 -0.673170 -0.570393
v 0.922827 -0.777448 1.016226
v -0.865807 -0.777448 1.016226
v -0.745098 -0.673170 -0.570393
v -0.708388 -0.777448 0.717048
v -0.609626 -0.673170 -0.570393
v 0.686335 -0.673170 -0.570393
v 0.797524 -0.777448 0.717048
v -1.162004 -0.777448 1.016226
vn -0.0000 0.9963 0.0857
vn -0.0000 -0.0000 1.0000
vn -0.9765 -0.0000 -0.2155
vn -0.0000 -0.9897 0.1430
vn 0.9378 -0.0000 0.3473
vn -0.0000 -0.0000 -1.0000
vn 0.9765 -0.0000 -0.2155
vn -0.0000 -0.9765 -0.2155
vn -0.9490 -0.0000 -0.3152
vn -0.0000 0.9765 -0.2155
vn -0.9378 -0.0000 0.3473
vn 0.9490 -0.0000 -0.3152
vn -0.0000 -0.9644 -0.2646
vn -0.0000 0.9045 -0.4266
vn -0.0000 -0.9101 0.4144
vn 0.5390 -0.6228 0.5672
vn -0.6265 -0.5763 0.5248
vn -0.9224 -0.0000 0.3863
vn 0.8850 -0.0000 0.4656
vn -0.0000 0.8548 0.5190
vn 0.5915 0.5126 0.6224
vn -0.6777 0.4675 0.5676
vt 0.854187 0.703172
vt 0.886105 0.703394
vt 0.875000 0.750000
vt 0.843137 0.750000
vt 0.592056 0.968137
vt 0.625000 0.968137
vt 0.625000 1.000000
vt 0.592056 1.000000
vt 0.592056 0.096697
vt 0.625000 0.096697
vt 0.625000 0.250000
vt 0.592056 0.250000
vt 0.338150 0.701652
vt 0.363877 0.701652
vt 0.375000 0.750000
vt 0.349271 0.750000
vt 0.599851 0.701652
vt 0.635667 0.701652
vt 0.625000 0.750000
vt 0.592056 0.750000
vt 0.592056 0.474271
vt 0.625000 0.474271
vt 0.625000 0.500000
vt 0.592056 0.500000
vt 0.625000 0.653303
vt 0.592056 0.653303
vt 0.349271 0.500000
vt 0.375000 0.500000
vt 0.375000 0.653303
vt 0.349271 0.653303
vt 0.599851 0.048348
vt 0.635667 0.048348
vt 0.843137 0.500000
vt 0.875000 0.500000
vt 0.875000 0.653303
vt 0.843137 0.653303
vt 0.592056 0.000000
vt 0.625000 0.000000
vt 0.664208 0.653303
vt 0.750000 0.653303
vt 0.760886 0.702523
vt 0.674944 0.701925
vt 0.173797 0.653303
vt 0.250000 0.653303
vt 0.238886 0.701652
vt 0.162688 0.701652
vt 0.664208 0.500000
vt 0.750000 0.500000
vt 0.173797 0.500000
vt 0.250000 0.500000
vt 0.592056 0.298797
vt 0.625000 0.298797
vt 0.625000 0.375000
vt 0.592056 0.375000
vt 0.250000 0.750000
vt 0.173797 0.750000
vt 0.592056 0.789208
vt 0.625000 0.789208
vt 0.625000 0.875000
vt 0.592056 0.875000
vt 0.750000 0.750000
vt 0.664208 0.750000
vt 0.375000 0.789208
vt 0.407306 0.789208
vt 0.407306 0.875000
vt 0.375000 0.875000
vt 0.375000 0.298797
vt 0.407306 0.298797
vt 0.407306 0.375000
vt 0.375000 0.375000
vt 0.407306 0.653303
vt 0.398998 0.701652
vt 0.375000 0.000000
vt 0.407306 0.000000
vt 0.398998 0.048348
vt 0.363877 0.048348
vt 0.407306 0.096697
vt 0.375000 0.096697
vt 0.407306 0.500000
vt 0.375000 0.474271
vt 0.407306 0.474271
vt 0.407306 0.750000
vt 0.407306 0.250000
vt 0.375000 0.250000
vt 0.375000 0.968137
vt 0.407306 0.968137
vt 0.407306 1.000000
vt 0.375000 1.000000
vt 0.575633 0.789208
vt 0.575633 0.875000
vt 0.575633 0.298797
vt 0.575633 0.375000
vt 0.575633 0.653303
vt 0.581998 0.701652
vt 0.575633 0.000000
vt 0.581998 0.048348
vt 0.575633 0.096697
vt 0.575633 0.500000
vt 0.575633 0.474271
vt 0.575633 0.750000
vt 0.575633 0.250000
vt 0.575633 0.968137
vt 0.575633 1.000000
vt 0.575633 0.460792
vt 0.592056 0.460792
vt 0.592056 0.775729
vt 0.575633 0.775729
vt 0.375000 0.460792
vt 0.407306 0.460792
vt 0.407306 0.775729
vt 0.375000 0.775729
vt 0.661441 0.701831
vt 0.650729 0.750000
vt 0.625000 0.775729
vt 0.650729 0.500000
vt 0.650729 0.653303
vt 0.335792 0.653303
vt 0.324672 0.701652
vt 0.335792 0.500000
vt 0.625000 0.460792
vt 0.335792 0.750000
vt 0.575633 0.951203
vt 0.592056 0.951203
vt 0.592056 0.281863
vt 0.575633 0.281863
vt 0.375000 0.951203
vt 0.407306 0.951203
vt 0.407306 0.281863
vt 0.375000 0.281863
vt 0.113895 0.701652
vt 0.145755 0.701652
vt 0.156863 0.750000
vt 0.125000 0.750000
vt 0.625000 0.281863
vt 0.125000 0.500000
vt 0.156863 0.500000
vt 0.156863 0.653303
vt 0.125000 0.653303
vt 0.826203 0.653303
vt 0.837223 0.703054
vt 0.826203 0.500000
vt 0.625000 0.951203
vt 0.826203 0.750000
vt 0.429202 0.775729
vt 0.429202 0.789208
vt 0.429202 0.375000
vt 0.429202 0.460792
vt 0.429202 0.281863
vt 0.429202 0.298797
vt 0.429202 0.875000
vt 0.429202 0.951203
vt 0.429202 0.250000
vt 0.429202 0.968137
vt 0.429202 0.750000
vt 0.429202 0.474271
vt 0.429202 1.000000
vt 0.429202 0.096697
vt 0.422803 0.701652
vt 0.429202 0.500000
vt 0.429202 0.653303
vt 0.422803 0.048348
vt 0.429202 0.000000
s 0
usemtl Material.002
f 64/1/1 15/2/1 7/3/1 58/4/1
f 68/5/2 58/6/2 7/7/2 35/8/2
f 40/9/3 11/10/3 5/11/3 38/12/3
f 52/13/4 16/14/4 4/15/4 45/16/4
f 42/17/5 14/18/5 3/19/5 37/20/5
f 56/21/6 46/22/6 1/23/6 36/24/6
f 36/24/7 1/23/7 10/25/7 39/26/7
f 49/27/8 2/28/8 12/29/8 51/30/8
f 41/31/9 15/32/9 11/10/9 40/9/9
f 62/33/10 5/34/10 11/35/10 63/36/10
f 35/37/11 7/38/11 15/32/11 41/31/11
f 39/26/12 10/25/12 14/18/12 42/17/12
f 51/30/13 12/29/13 16/14/13 52/13/13
f 63/36/14 11/35/14 15/2/14 64/1/14
f 89/39/14 22/40/14 24/41/14 90/42/14
f 77/43/13 21/44/13 23/45/13 78/46/13
f 88/47/10 20/48/10 22/40/10 89/39/10
f 75/49/8 17/50/8 21/44/8 77/43/8
f 74/51/6 70/52/6 20/53/6 43/54/6
f 78/46/4 23/45/4 19/55/4 69/56/4
f 86/57/2 82/58/2 18/59/2 44/60/2
f 90/42/1 24/41/1 18/61/1 82/62/1
f 87/63/2 85/64/2 34/65/2 19/66/2
f 75/67/6 73/68/6 33/69/6 17/70/6
f 12/29/12 29/71/12 32/72/12 16/14/12
f 8/73/11 26/74/11 31/75/11 13/76/11
f 13/76/9 31/75/9 30/77/9 9/78/9
f 2/28/7 25/79/7 29/71/7 12/29/7
f 49/80/6 54/81/6 25/79/6 2/28/6
f 16/14/5 32/72/5 27/82/5 4/15/5
f 9/78/3 30/77/3 28/83/3 6/84/3
f 61/85/2 66/86/2 26/87/2 8/88/2
f 110/89/15 86/57/15 44/60/15 101/90/15
f 108/91/6 74/51/6 43/54/6 100/92/6
f 96/93/12 39/26/12 42/17/12 99/94/12
f 102/95/11 35/37/11 41/31/11 98/96/11
f 98/96/9 41/31/9 40/9/9 97/97/9
f 93/98/7 36/24/7 39/26/7 96/93/7
f 103/99/6 56/21/6 36/24/6 93/98/6
f 99/94/5 42/17/5 37/20/5 94/100/5
f 97/97/3 40/9/3 38/12/3 95/101/3
f 105/102/2 68/5/2 35/8/2 102/103/2
f 109/104/6 92/105/6 56/21/6 103/99/6
f 94/100/2 37/20/2 55/106/2 104/107/2
f 81/108/6 91/109/6 54/81/6 49/80/6
f 4/15/2 27/82/2 53/110/2 45/111/2
f 14/18/1 48/112/1 50/113/1 3/19/1
f 37/20/2 3/19/2 50/114/2 55/106/2
f 1/23/10 46/115/10 47/116/10 10/25/10
f 10/25/14 47/116/14 48/112/14 14/18/14
f 83/117/13 51/30/13 52/13/13 84/118/13
f 81/119/8 49/27/8 51/30/8 83/117/8
f 92/105/6 88/120/6 46/22/6 56/21/6
f 84/118/4 52/13/4 45/16/4 87/121/4
f 107/122/16 80/123/16 68/5/16 105/102/16
f 95/101/6 38/12/6 67/124/6 106/125/6
f 69/126/2 79/127/2 66/86/2 61/85/2
f 6/84/6 28/83/6 65/128/6 57/129/6
f 13/130/4 60/131/4 61/132/4 8/133/4
f 38/12/6 5/11/6 62/134/6 67/124/6
f 6/135/8 57/136/8 59/137/8 9/138/8
f 9/138/13 59/137/13 60/131/13 13/130/13
f 71/139/14 63/36/14 64/1/14 72/140/14
f 70/141/10 62/33/10 63/36/10 71/139/10
f 80/123/2 76/142/2 58/6/2 68/5/2
f 72/140/1 64/1/1 58/4/1 76/143/1
f 24/41/1 72/140/1 76/143/1 18/61/1
f 44/60/2 18/59/2 76/142/2 80/123/2
f 20/48/10 70/141/10 71/139/10 22/40/10
f 22/40/14 71/139/14 72/140/14 24/41/14
f 19/66/2 34/65/2 79/127/2 69/126/2
f 101/90/15 44/60/15 80/123/15 107/122/15
f 106/125/6 67/124/6 74/51/6 108/91/6
f 57/129/6 65/128/6 73/68/6 75/67/6
f 60/131/4 78/46/4 69/56/4 61/132/4
f 67/124/6 62/134/6 70/52/6 74/51/6
f 57/136/8 75/49/8 77/43/8 59/137/8
f 59/137/13 77/43/13 78/46/13 60/131/13
f 23/45/4 84/118/4 87/121/4 19/55/4
f 43/54/6 20/53/6 88/120/6 92/105/6
f 17/50/8 81/119/8 83/117/8 21/44/8
f 21/44/13 83/117/13 84/118/13 23/45/13
f 17/70/6 33/69/6 91/109/6 81/108/6
f 100/92/6 43/54/6 92/105/6 109/104/6
f 104/107/17 55/106/17 86/57/17 110/89/17
f 45/111/2 53/110/2 85/64/2 87/63/2
f 48/112/1 90/42/1 82/62/1 50/113/1
f 55/106/2 50/114/2 82/58/2 86/57/2
f 46/115/10 88/47/10 89/39/10 47/116/10
f 47/116/14 89/39/14 90/42/14 48/112/14
f 121/144/18 104/107/18 110/89/18 127/145/18
f 118/146/6 100/92/6 109/104/6 126/147/6
f 123/148/6 106/125/6 108/91/6 125/149/6
f 119/150/2 101/90/2 107/122/2 124/151/2
f 113/152/6 95/101/6 106/125/6 123/148/6
f 124/151/19 107/122/19 105/102/19 122/153/19
f 112/154/2 94/100/2 104/107/2 121/144/2
f 126/147/6 109/104/6 103/99/6 120/155/6
f 122/153/2 105/102/2 102/103/2 128/156/2
f 115/157/3 97/97/3 95/101/3 113/152/3
f 117/158/5 99/94/5 94/100/5 112/154/5
f 120/155/6 103/99/6 93/98/6 111/159/6
f 111/159/7 93/98/7 96/93/7 114/160/7
f 116/161/9 98/96/9 97/97/9 115/157/9
f 128/162/11 102/95/11 98/96/11 116/161/11
f 114/160/12 96/93/12 99/94/12 117/158/12
f 125/149/6 108/91/6 100/92/6 118/146/6
f 127/145/2 110/89/2 101/90/2 119/150/2
f 85/64/20 127/145/20 119/150/20 34/65/20
f 73/68/6 125/149/6 118/146/6 33/69/6
f 29/71/12 114/160/12 117/158/12 32/72/12
f 26/74/11 128/162/11 116/161/11 31/75/11
f 31/75/9 116/161/9 115/157/9 30/77/9
f 25/79/7 111/159/7 114/160/7 29/71/7
f 54/81/6 120/155/6 111/159/6 25/79/6
f 32/72/5 117/158/5 112/154/5 27/82/5
f 30/77/3 115/157/3 113/152/3 28/83/3
f 66/86/2 122/153/2 128/156/2 26/87/2
f 91/109/6 126/147/6 120/155/6 54/81/6
f 27/82/2 112/154/2 121/144/2 53/110/2
f 79/127/21 124/151/21 122/153/21 66/86/21
f 28/83/6 113/152/6 123/148/6 65/128/6
f 34/65/20 119/150/20 124/151/20 79/127/20
f 65/128/6 123/148/6 125/149/6 73/68/6
f 33/69/6 118/146/6 126/147/6 91/109/6
f 53/110/22 121/144/22 127/145/22 85/64/22
